<?xml version="1.0" encoding="utf-8"?>
<!-- Generator: Adobe Illustrator 16.0.4, SVG Export Plug-In . SVG Version: 6.00 Build 0)  -->
<!DOCTYPE svg PUBLIC "-//W3C//DTD SVG 1.1//EN" "http://www.w3.org/Graphics/SVG/1.1/DTD/svg11.dtd">
<svg version="1.1" id="Layer_1" xmlns="http://www.w3.org/2000/svg" xmlns:xlink="http://www.w3.org/1999/xlink" x="0px" y="0px"
	 width="1400px" height="1200px" viewBox="0 0 1400 1200" enable-background="new 0 0 1400 1200" xml:space="preserve">
<title>Creative Commons logo</title>
<path d="M365.392,766.37c-28.153-4.364-46.443-20.669-53.449-47.654c-3.358-12.915-2.289-37.748,2.108-49.263
	c6.215-16.262,16.13-27.311,31.218-34.801c18.985-9.414,43.663-9.373,63.719,0.115c8.25,3.902,20.186,14.697,23.642,21.383
	l2.026,3.921l-15.102,7.845c-13.88,7.211-15.171,7.629-15.953,5.166c-1.477-4.648-12.619-13.795-18.052-14.815
	c-13.875-2.601-24.935,2.847-31.208,15.381c-2.68,5.356-3.539,9.565-3.973,19.507c-1.233,28.208,9.365,43.526,30.166,43.581
	c10.938,0.027,18.575-3.933,23.712-12.294c1.909-3.109,3.948-5.663,4.536-5.688c1.598-0.055,25.99,12.362,25.99,13.229
	c0,5.264-16.844,22.146-27.458,27.52C394.352,766.069,379.34,768.53,365.392,766.37z"/>
<path d="M526.354,629.802c-9.672-2.313-30.308-2.288-40.242,0.044c-18.079,4.246-34.642,16.816-42.451,32.238
	c-10.347,20.418-9.896,51.576,1.042,72.1c7.826,14.679,24.333,26.696,41.412,30.142c4.197,0.851,8.882,1.829,10.41,2.185
	c4.708,1.083,25.987-0.506,33.302-2.482c25.741-6.959,42.555-26.636,46.495-54.403C581.992,669.65,562.441,638.421,526.354,629.802z
	 M519.115,734.603c-7.462,3.117-19.947,2.775-27.048-0.741c-11.733-5.811-18.053-21.533-16.686-41.532
	c0.84-12.25,3.632-19.729,9.762-26.103c5.871-6.104,12.108-8.572,21.607-8.534c13.729,0.058,22.331,5.786,28.106,18.726
	c2.51,5.621,3.079,9.395,3.038,20.103C537.818,717.326,531.942,729.243,519.115,734.603z"/>
<path d="M1069.613,627.983c-21.043,0-37.731,5.937-50.643,18.012c-19.964,18.673-25.61,56.921-12.537,84.872
	c7.976,17.038,24.188,29.621,43.126,33.466c4.156,0.848,8.808,1.818,10.333,2.169c4.676,1.068,25.944-0.556,33.519-2.557
	c29.851-7.897,46.96-32.627,46.659-67.433C1139.701,653.536,1113.427,627.983,1069.613,627.983z M1100.911,704.842
	c-2.062,15.684-7.445,24.801-17.262,29.26c-13.122,5.959-30.909,1.955-37.839-8.509c-13.604-20.558-8.2-56.38,9.822-65.103
	c10.749-5.204,27.073-3.109,35.257,4.522C1098.85,672.439,1103.006,688.943,1100.911,704.842z"/>
<path d="M1324.934,766.315c-14.304-1.895-27.82-7.951-40.614-18.188l-8.695-6.959l11.972-10.498l11.974-10.497l5.745,4.562
	c12.261,9.739,22.463,13.581,36.033,13.581c14.875,0,23.403-5.868,21.208-14.612c-1.271-5.064-6.538-7.279-29.972-12.613
	c-11.351-2.584-23.789-6.057-27.642-7.711c-18.525-7.974-25.416-27.65-16.748-47.874c7.492-17.478,26.528-27.532,52.008-27.48
	c18.241,0.041,36.84,5.264,52.271,14.684l6.478,3.951l-12.028,11.654l-12.029,11.651l-3.47-3.147
	c-9.529-8.654-34.524-13.503-43.818-8.493c-8.203,4.416-7.358,13.073,1.641,16.833c2.622,1.094,11.785,3.519,20.353,5.384
	c30.523,6.642,40.425,11.492,46.769,22.917c4.659,8.397,4.884,25.153,0.468,34.898c-3.517,7.763-12.092,16.649-19.909,20.637
	C1363.896,765.627,1342.496,768.646,1324.934,766.315z"/>
<path d="M267.572,537.629c-24.399-36.695-63.899-60.263-107.98-64.433c-45.232-4.279-87.754,11.228-118.218,43.115
	c-18.575,19.444-30.705,41.128-37.816,67.618C0.41,595.636-0.03,599.979,0,618.81c0.027,18.788,0.498,23.259,3.708,35.38
	c14.016,52.867,55.267,93.445,108.442,106.68c4.577,1.14,10.199,2.332,12.488,2.649c10.131,1.402,34.639,0.814,45.555-1.094
	c44.939-7.834,84.867-36.829,105.358-76.508C299.466,639.624,296.3,580.829,267.572,537.629z M261.603,649.506
	c-11.741,43.512-47.466,76.716-92.556,86.021C98.749,750.038,30.25,696.849,25.884,624.357
	c-2.825-46.82,25.522-93.797,69.045-114.42c16.48-7.809,29.75-10.666,49.832-10.734c19.315-0.061,30.034,1.916,46.886,8.662
	c33.83,13.549,60.345,44.223,70.098,81.094C265.825,604.383,265.754,634.119,261.603,649.506z"/>
<path d="M88.405,660.969c-13.3-4.717-23.502-18.559-25.296-34.336c-2.669-23.385,6.13-41.541,24.068-49.689
	c9.721-4.41,27.376-4.309,37.866,0.225c6.368,2.754,18.334,13.56,18.334,16.562c0,0.492-4.134,2.931-9.179,5.419l-9.182,4.525
	l-4.9-4.899c-2.734-2.734-6.916-5.28-9.458-5.754c-6.305-1.189-13.855,1.622-17.27,6.418c-5.646,7.936-6.038,28.681-0.689,36.846
	c2.775,4.235,7.438,7.205,11.834,7.541c9.245,0.711,11.578-0.087,17.046-5.84l5.518-5.797l7.106,3.91
	c3.907,2.151,7.67,4.421,8.362,5.047c2.398,2.16-8.597,13.383-17.443,17.801c-7.517,3.758-9.885,4.261-19.767,4.159
	C99.165,663.041,91.544,662.081,88.405,660.969z"/>
<path d="M173.048,660.969c-13.114-4.651-23.144-18.059-25.299-33.822c-3.125-22.837,6.082-42.029,24.071-50.197
	c10.437-4.738,28.137-4.378,38.716,0.801c6.549,3.202,17.483,13.254,17.483,16.067c0,0.479-4.285,2.945-9.529,5.479l-9.526,4.613
	l-4.933-5.384c-4.435-4.843-5.616-5.384-11.692-5.384c-8.365,0-13.746,3.286-16.65,10.169c-2.598,6.157-2.926,21.254-0.612,28.134
	c4.711,13.983,21.899,17.298,31.656,6.104l4.386-5.031l8.452,4.271c4.648,2.344,8.452,4.662,8.452,5.146
	c0,3.172-10.921,13.347-18.269,17.016c-7.52,3.757-9.885,4.261-19.767,4.159C183.81,663.041,176.189,662.081,173.048,660.969z"/>
<path d="M586.021,697.21v-65.912h19.428h19.425v4.752v4.755l7.951-4.787c10.55-6.35,16.896-8.023,30.21-7.941
	c13.267,0.074,21.052,3.03,29.728,11.285l5.85,5.559l4.602-4.041c10.303-9.051,29.223-14.612,43.777-12.882
	c15.542,1.849,25.504,7.528,30.888,17.602c3.052,5.706,3.12,6.863,3.517,61.671l0.404,55.853h-19.422h-19.414l-0.416-45.445
	c-0.375-40.329-0.694-45.948-2.871-49.93c-6.693-12.25-26.944-11.471-33.896,1.304c-2.22,4.069-2.546,9.464-2.958,49.32
	l-0.474,44.751h-19.31h-19.313v-45.858c0-50.348-0.235-51.945-8.276-56.106c-5.765-2.98-16.432-2.68-21.834,0.615
	c-8.578,5.228-8.739,6.28-8.739,56.186v45.169h-19.425h-19.428V697.21H586.021z"/>
<path d="M794.166,697.21v-65.912h19.426h19.425v5.674v5.671l4.501-3.787c9.95-8.37,28.342-12.978,41.85-10.479
	c10.532,1.944,16.578,4.982,22.624,11.364l5.022,5.3l5.029-3.979c13.469-10.667,30.247-15.315,46.156-12.778
	c11.312,1.805,17.765,4.624,23.343,10.202c8.969,8.972,8.931,8.668,9.393,69.467l0.419,55.158h-19.396h-19.397l-0.468-44.751
	c-0.514-49.897-1.012-52.875-9.57-57.299c-6.877-3.558-18.208-2.207-23.425,2.792c-6.137,5.876-6.984,12.941-6.984,58.39v40.865
	h-19.356h-19.359l-0.413-46.832c-0.377-42.383-0.653-47.182-2.906-50.512c-3.5-5.154-9.324-7.188-18.422-6.435
	c-9.688,0.805-15.556,5.934-17.338,15.148c-0.643,3.334-1.198,24.64-1.23,47.341l-0.061,41.283h-19.425h-19.425V697.21H794.166z"/>
<path d="M1150.783,697.21v-65.912h19.426h19.425v5.674v5.671l4.225-3.558c18.392-15.471,55.007-14.927,67.159,0.998
	c7.289,9.554,7.713,13.448,7.713,70.525v52.508h-19.425h-19.425v-45.142c0-49.752-0.432-52.768-8.146-56.758
	c-6.341-3.275-16.86-2.811-22.523,0.998c-8.687,5.85-8.829,6.719-9.324,56.146l-0.448,44.751h-19.324h-19.32V697.21H1150.783z"/>
<path d="M368.859,613.74c-22.312-2.064-42.424-14.76-51.308-32.402c-7.347-14.588-9.992-41.787-5.649-58.098
	c5.879-22.094,21.558-39.071,41.812-45.289c22.783-6.994,50.102-2.393,66.732,11.23c5.414,4.435,15.297,16.887,14.115,17.775
	c-1.936,1.463-27.855,14.711-28.776,14.711c-0.64,0-2.812-2.485-4.823-5.525c-10.03-15.157-34.331-15.092-44.196,0.123
	c-5.094,7.855-7.12,18.055-6.385,32.09c1.16,22.097,10.58,34.257,27.48,35.481c4.43,0.32,10.262-0.147,12.967-1.039
	c4.561-1.507,12.018-8.518,15.682-14.755c1.493-2.545,2.185-2.359,14.916,3.919c7.345,3.62,13.349,7.117,13.349,7.771
	c0,2.108-7.711,11.867-13.475,17.055C407.521,609.19,387.972,615.51,368.859,613.74z"/>
<path d="M652.633,552.203v-6.117c0-8.501-3.342-25.047-6.855-33.931c-8.955-22.648-26.972-35.517-52.06-37.19
	c-12.778-0.853-27.896,1.816-38.052,6.711c-13.847,6.677-25.979,23.381-30.057,41.387c-10.836,47.85,10.104,84.6,51.382,90.178
	c27.3,3.686,54.177-6.319,68.22-25.397c3.363-4.571,5.929-8.881,5.696-9.581s-6.486-4.504-13.894-8.46l-13.47-7.188l-8.632,9.554
	c-9.62,10.642-14.574,13.354-24.334,13.308c-15.96-0.073-25.676-9.551-28.781-28.07l-0.873-5.204h45.858h45.851V552.203z
	 M560.7,528.613l0.896-4.486c3.558-17.773,25.37-26.718,40.786-16.721c5.89,3.816,9.335,9.174,10.886,16.934l0.855,4.273h-26.712
	H560.7z"/>
<path d="M782.247,608.053c-0.618-1.334-1.484-25.533-1.933-53.769c-0.802-50.162-0.895-51.494-4.063-57.975
	c-6.678-13.661-20.432-19.979-46.522-21.38c-24.711-1.32-40.715,2.605-51.951,12.759c-5.938,5.364-11.271,16.868-11.271,24.325
	v4.109h18.577h18.577l0.895-4.771c1.821-9.701,14.304-15.285,26.531-11.861c8.838,2.472,11.02,5.559,11.03,15.583l0.012,8.384
	l-18.865,3.18c-36.225,6.114-51.718,14.12-59.573,30.795c-4.14,8.788-4.312,24.806-0.366,33.698
	c4.924,11.102,16.967,19.718,30.934,22.156c14.199,2.47,34.625-2.387,44.086-10.486c6.617-5.663,7.252-5.808,7.276-1.685
	c0.009,1.718,0.399,4.525,0.856,6.243c0.809,3.035,1.337,3.125,18.858,3.125C782.004,610.483,783.278,610.298,782.247,608.053z
	 M741.3,564.732c-1.758,8.176-7.88,16.042-14.714,18.899c-2.469,1.031-7.535,1.876-11.263,1.879c-17.213,0-24.325-17-11.184-26.724
	c3.284-2.431,32.73-12.086,36.952-12.118C743.279,546.649,743.373,555.066,741.3,564.732z"/>
<path d="M837.463,613.172c-12.478-2.207-19.961-7.818-24.837-18.646c-2.201-4.881-2.557-10.691-2.939-48.221l-0.438-42.67h-9.677
	h-9.68l0.399-11.448l0.401-11.452l9.365-0.407l9.368-0.407v-18.67v-18.668h19.425h19.426v18.736v18.732h11.793h11.793v11.739v11.738
	l-11.449,0.402l-11.451,0.399l-0.398,31.915c-0.225,17.558-0.036,33.983,0.421,36.507c1.356,7.514,4.957,9.978,14.55,9.978h8.323
	v15.264v15.266l-6.59,0.017c-3.62,0.006-9.713,0.279-13.524,0.604C847.938,614.202,841.51,613.885,837.463,613.172z"/>
<path d="M1159.679,563.329c-0.831-0.014-4.351,3.632-7.82,8.1c-7.547,9.724-15.469,14.093-25.452,14.049
	c-13.809-0.06-25.653-9.731-27.645-22.572c-0.503-3.213-1.217-6.935-1.594-8.269c-0.643-2.28,2.171-2.431,45.398-2.431h46.086
	l-0.807-10.757c-3.503-46.75-32.247-72.064-74.791-65.863c-27.773,4.05-45.404,20.514-51.882,48.439
	c-2.69,11.588-2.983,32-0.615,42.061c6.169,26.135,25.164,43.34,52.065,47.148c16.589,2.352,33.66-0.438,47.988-7.848
	c9.729-5.025,16.447-11.176,23.223-21.263l4.189-6.237l-13.418-7.262C1167.23,566.624,1160.513,563.343,1159.679,563.329z
	 M1097.297,524.797c4.263-17.571,22.829-26.622,38.939-18.977c5.973,2.835,11.551,10.623,12.704,17.74l0.823,5.053h-26.698h-26.698
	L1097.297,524.797z"/>
<path d="M444.82,544.225l0.36-66.254l19.007-0.389l19.007-0.389l0.421,6.924l0.418,6.924l6.008-4.045
	c5.639-3.795,14.637-7.002,24.74-8.82c5.701-1.025,6.024-0.047,6.024,18.443v14.959l-10.755,1.682
	c-5.917,0.928-13.352,2.91-16.521,4.414c-9.894,4.687-10.194,6.209-10.194,52.426v40.381H463.9h-19.441L444.82,544.225z"/>
<polygon points="887.135,543.839 887.135,477.193 906.219,477.579 925.299,477.965 925.654,544.225 926.018,610.483 
	906.579,610.483 887.135,610.483 "/>
<path d="M956.225,546.305c-11.963-35.298-21.94-65.113-22.176-66.259c-0.358-1.764,2.699-2.142,19.882-2.458
	c15.487-0.293,20.45,0.035,20.935,1.386c0.347,0.971,5.537,21.911,11.536,46.522c5.993,24.612,11.243,44.743,11.673,44.734
	c0.424-0.011,5.813-20.775,11.974-46.14l11.206-46.12l20.362-0.386c12.195-0.232,20.366,0.145,20.366,0.933
	c0,0.727-8.189,25.246-18.197,54.501s-20.055,58.649-22.324,65.327l-4.131,12.144h-19.674h-19.672L956.225,546.305z"/>
<polygon points="887.135,448.171 887.135,432.867 906.612,432.867 926.086,432.867 925.692,447.783 925.299,462.699 
	906.219,463.087 887.135,463.473 "/>
</svg>
